<?xml version="1.0" encoding="UTF-8" standalone="no"?>
<!DOCTYPE svg PUBLIC "-//W3C//DTD SVG 1.1//EN" "http://www.w3.org/Graphics/SVG/1.1/DTD/svg11.dtd">
<svg width="100%" height="100%" viewBox="0 0 16 16" version="1.1" xmlns="http://www.w3.org/2000/svg" xmlns:xlink="http://www.w3.org/1999/xlink" xml:space="preserve" xmlns:serif="http://www.serif.com/" style="fill-rule:evenodd;clip-rule:evenodd;stroke-linecap:round;stroke-linejoin:round;stroke-miterlimit:1.5;">
    <g transform="matrix(1,0,0,1.14286,0,-0.142857)">
        <path d="M12.95,12.95C14.263,11.637 15,9.857 15,8C15,4.137 11.863,1 8,1C4.137,1 1,4.137 1,8C1,9.857 1.737,11.637 3.05,12.95L12.95,12.95Z" style="fill:white;stroke:black;stroke-width:0.93px;"/>
    </g>
    <g transform="matrix(0.5,0,0,1,0.9,0)">
        <path d="M1,8L5,8" style="fill:none;stroke:black;stroke-width:1.26px;"/>
    </g>
    <g transform="matrix(0.353553,0.353553,-0.707107,0.707107,8.59619,-2.71751)">
        <path d="M1,8L5,8" style="fill:none;stroke:black;stroke-width:1.26px;"/>
    </g>
    <g transform="matrix(5.55112e-17,0.5,-1,1.11022e-16,16,0.5)">
        <path d="M1,8L5,8" style="fill:none;stroke:black;stroke-width:1.26px;"/>
    </g>
    <g transform="matrix(0.5,0,0,1,12.1,0)">
        <path d="M1,8L5,8" style="fill:none;stroke:black;stroke-width:1.26px;"/>
    </g>
    <g transform="matrix(0.707107,0.707107,-1.07369,1.07369,10.9326,-6.24634)">
        <path d="M8,8L8,4.707" style="fill:none;stroke:rgb(128,128,128);stroke-width:0.78px;"/>
    </g>
</svg>
