<?xml version="1.0" encoding="UTF-8" standalone="no"?>
<!DOCTYPE svg PUBLIC "-//W3C//DTD SVG 1.1//EN" "http://www.w3.org/Graphics/SVG/1.1/DTD/svg11.dtd">
<svg width="100%" height="100%" viewBox="0 0 16 16" version="1.1" xmlns="http://www.w3.org/2000/svg" xmlns:xlink="http://www.w3.org/1999/xlink" xml:space="preserve" xmlns:serif="http://www.serif.com/" style="fill-rule:evenodd;clip-rule:evenodd;stroke-linejoin:round;stroke-miterlimit:2;">
    <g transform="matrix(0.909091,0,0,0.909091,0.272727,0.272727)">
        <circle cx="8.5" cy="8.5" r="5.5" style="fill:white;"/>
    </g>
    <path d="M9.014,1.074C8.341,0.975 7.659,0.975 6.986,1.074L7.065,2.585C6.261,2.724 5.499,3.039 4.832,3.509L3.819,2.386C3.274,2.791 2.791,3.274 2.386,3.819L3.509,4.832C3.039,5.499 2.724,6.261 2.585,7.065L1.074,6.986C0.975,7.659 0.975,8.341 1.074,9.014L2.585,8.935C2.724,9.739 3.039,10.501 3.509,11.168L2.386,12.181C2.791,12.726 3.274,13.209 3.819,13.614L4.832,12.491C5.499,12.961 6.261,13.276 7.065,13.415L6.986,14.926C7.659,15.025 8.341,15.025 9.014,14.926L8.935,13.415C9.739,13.276 10.501,12.961 11.168,12.491L12.181,13.614C12.726,13.209 13.209,12.726 13.614,12.181L12.491,11.168C12.961,10.501 13.276,9.739 13.415,8.935L14.926,9.014C15.025,8.341 15.025,7.659 14.926,6.986L13.415,7.065C13.276,6.261 12.961,5.499 12.491,4.832L13.614,3.819C13.209,3.274 12.726,2.791 12.181,2.386L11.168,3.509C10.501,3.039 9.739,2.724 8.935,2.585L9.014,1.074ZM8,3.766C10.337,3.766 12.234,5.663 12.234,8C12.234,10.337 10.337,12.234 8,12.234C5.663,12.234 3.766,10.337 3.766,8C3.766,5.663 5.663,3.766 8,3.766Z"/>
</svg>
